HIERARCHY
ROOT mixamorig:Hips
{
	OFFSET 0.000000 104.274902 0.000000
	CHANNELS 6 Xposition Yposition Zposition Xrotation Yrotation Zrotation
	JOINT mixamorig:Spine
	{
		OFFSET 0.000000 10.181549 0.131524
		CHANNELS 6 Xposition Yposition Zposition Xrotation Yrotation Zrotation
		JOINT mixamorig:Spine1
		{
			OFFSET 0.000000 9.893990 -1.470706
			CHANNELS 3 Xrotation Yrotation Zrotation
			JOINT mixamorig:Spine2
			{
				OFFSET 0.000000 9.220787 -1.370637
				CHANNELS 3 Xrotation Yrotation Zrotation
				JOINT mixamorig:Neck
				{
					OFFSET 0.000000 16.740372 -2.049022
					CHANNELS 6 Xposition Yposition Zposition Xrotation Yrotation Zrotation
					JOINT mixamorig:Head
					{
						OFFSET 0.000000 9.617859 1.684976
						CHANNELS 6 Xposition Yposition Zposition Xrotation Yrotation Zrotation
						JOINT mixamorig:HeadTop_End
						{
							OFFSET 0.000000 22.037384 7.501072
							CHANNELS 6 Xposition Yposition Zposition Xrotation Yrotation Zrotation
							End Site
							{
								OFFSET 0.000000 23.106567 -2.828246
							}
						}
					}
				}
				JOINT mixamorig:RightShoulder
				{
					OFFSET -4.570000 11.014877 -2.160840
					CHANNELS 6 Xposition Yposition Zposition Xrotation Yrotation Zrotation
					JOINT mixamorig:RightArm
					{
						OFFSET -10.592867 -0.524796 -2.232105
						CHANNELS 3 Xrotation Yrotation Zrotation
						JOINT mixamorig:RightForeArm
						{
							OFFSET -27.841497 0.000000 -0.000002
							CHANNELS 3 Xrotation Yrotation Zrotation
							JOINT mixamorig:RightHand
							{
								OFFSET -28.328812 0.000000 -0.000001
								CHANNELS 3 Xrotation Yrotation Zrotation
								JOINT mixamorig:RightHandThumb1
								{
									OFFSET -2.464798 -1.573990 2.681911
									CHANNELS 6 Xposition Yposition Zposition Xrotation Yrotation Zrotation
									JOINT mixamorig:RightHandThumb2
									{
										OFFSET -3.244781 -1.873383 1.873376
										CHANNELS 3 Xrotation Yrotation Zrotation
										JOINT mixamorig:RightHandThumb3
										{
											OFFSET -2.646263 -1.527817 1.527818
											CHANNELS 6 Xposition Yposition Zposition Xrotation Yrotation Zrotation
											JOINT mixamorig:RightHandThumb4
											{
												OFFSET -1.994591 -1.151581 1.151575
												CHANNELS 6 Xposition Yposition Zposition Xrotation Yrotation Zrotation
												End Site
												{
													OFFSET -1.860176 -1.142715 1.365483
												}
											}
										}
									}
								}
								JOINT mixamorig:RightHandIndex1
								{
									OFFSET -9.108299 -0.517883 2.259803
									CHANNELS 6 Xposition Yposition Zposition Xrotation Yrotation Zrotation
									JOINT mixamorig:RightHandIndex2
									{
										OFFSET -3.699997 0.000000 0.000000
										CHANNELS 3 Xrotation Yrotation Zrotation
										JOINT mixamorig:RightHandIndex3
										{
											OFFSET -2.850006 0.000000 0.000000
											CHANNELS 3 Xrotation Yrotation Zrotation
											JOINT mixamorig:RightHandIndex4
											{
												OFFSET -2.772194 0.000000 0.000000
												CHANNELS 3 Xrotation Yrotation Zrotation
												End Site
												{
													OFFSET -2.772202 0.000000 -0.000484
												}
											}
										}
									}
								}
								JOINT mixamorig:RightHandMiddle1
								{
									OFFSET -9.532501 0.000000 -0.000000
									CHANNELS 6 Xposition Yposition Zposition Xrotation Yrotation Zrotation
									JOINT mixamorig:RightHandMiddle2
									{
										OFFSET -3.699997 0.000000 0.000000
										CHANNELS 3 Xrotation Yrotation Zrotation
										JOINT mixamorig:RightHandMiddle3
										{
											OFFSET -2.949997 0.000000 0.000000
											CHANNELS 3 Xrotation Yrotation Zrotation
											JOINT mixamorig:RightHandMiddle4
											{
												OFFSET -2.946594 0.000000 0.000000
												CHANNELS 3 Xrotation Yrotation Zrotation
												End Site
												{
													OFFSET -2.946602 0.000000 -0.000982
												}
											}
										}
									}
								}
								JOINT mixamorig:RightHandRing1
								{
									OFFSET -9.103600 -0.043106 -1.865100
									CHANNELS 6 Xposition Yposition Zposition Xrotation Yrotation Zrotation
									JOINT mixamorig:RightHandRing2
									{
										OFFSET -3.379303 0.000000 0.000000
										CHANNELS 3 Xrotation Yrotation Zrotation
										JOINT mixamorig:RightHandRing3
										{
											OFFSET -2.889694 0.000000 0.000000
											CHANNELS 3 Xrotation Yrotation Zrotation
											JOINT mixamorig:RightHandRing4
											{
												OFFSET -2.638802 0.000000 0.000000
												CHANNELS 3 Xrotation Yrotation Zrotation
												End Site
												{
													OFFSET -2.638802 0.000000 0.004218
												}
											}
										}
									}
								}
								JOINT mixamorig:RightHandPinky1
								{
									OFFSET -8.076698 -0.486725 -3.806299
									CHANNELS 6 Xposition Yposition Zposition Xrotation Yrotation Zrotation
									JOINT mixamorig:RightHandPinky2
									{
										OFFSET -3.600006 0.000000 0.000000
										CHANNELS 3 Xrotation Yrotation Zrotation
										JOINT mixamorig:RightHandPinky3
										{
											OFFSET -2.099998 0.000000 0.000000
											CHANNELS 3 Xrotation Yrotation Zrotation
											JOINT mixamorig:RightHandPinky4
											{
												OFFSET -2.115791 0.000000 0.000000
												CHANNELS 3 Xrotation Yrotation Zrotation
												End Site
												{
													OFFSET -2.115799 0.000000 0.000174
												}
											}
										}
									}
								}
							}
						}
					}
				}
				JOINT mixamorig:LeftShoulder
				{
					OFFSET 4.570400 11.014679 -2.160816
					CHANNELS 6 Xposition Yposition Zposition Xrotation Yrotation Zrotation
					JOINT mixamorig:LeftArm
					{
						OFFSET 10.592373 -0.524597 -2.232116
						CHANNELS 3 Xrotation Yrotation Zrotation
						JOINT mixamorig:LeftForeArm
						{
							OFFSET 27.841488 0.000000 0.000001
							CHANNELS 3 Xrotation Yrotation Zrotation
							JOINT mixamorig:LeftHand
							{
								OFFSET 28.328808 0.000000 -0.000000
								CHANNELS 3 Xrotation Yrotation Zrotation
								JOINT mixamorig:LeftHandThumb1
								{
									OFFSET 2.466103 -1.576202 2.681698
									CHANNELS 6 Xposition Yposition Zposition Xrotation Yrotation Zrotation
									JOINT mixamorig:LeftHandThumb2
									{
										OFFSET 3.243317 -1.872528 1.872530
										CHANNELS 3 Xrotation Yrotation Zrotation
										JOINT mixamorig:LeftHandThumb3
										{
											OFFSET 2.647881 -1.528763 1.528754
											CHANNELS 6 Xposition Yposition Zposition Xrotation Yrotation Zrotation
											JOINT mixamorig:LeftHandThumb4
											{
												OFFSET 1.998924 -1.154083 1.154080
												CHANNELS 6 Xposition Yposition Zposition Xrotation Yrotation Zrotation
												End Site
												{
													OFFSET 1.884041 -1.149155 1.337651
												}
											}
										}
									}
								}
								JOINT mixamorig:LeftHandIndex1
								{
									OFFSET 9.109299 -0.518005 2.259900
									CHANNELS 6 Xposition Yposition Zposition Xrotation Yrotation Zrotation
									JOINT mixamorig:LeftHandIndex2
									{
										OFFSET 3.699997 0.000000 0.000000
										CHANNELS 3 Xrotation Yrotation Zrotation
										JOINT mixamorig:LeftHandIndex3
										{
											OFFSET 2.850006 0.000000 0.000000
											CHANNELS 3 Xrotation Yrotation Zrotation
											JOINT mixamorig:LeftHandIndex4
											{
												OFFSET 2.774895 0.000000 0.000000
												CHANNELS 3 Xrotation Yrotation Zrotation
												End Site
												{
													OFFSET 2.774902 0.000000 -0.000072
												}
											}
										}
									}
								}
								JOINT mixamorig:LeftHandMiddle1
								{
									OFFSET 9.533401 0.000000 0.000000
									CHANNELS 6 Xposition Yposition Zposition Xrotation Yrotation Zrotation
									JOINT mixamorig:LeftHandMiddle2
									{
										OFFSET 3.699997 0.000000 0.000000
										CHANNELS 3 Xrotation Yrotation Zrotation
										JOINT mixamorig:LeftHandMiddle3
										{
											OFFSET 2.949997 0.000000 0.000000
											CHANNELS 3 Xrotation Yrotation Zrotation
											JOINT mixamorig:LeftHandMiddle4
											{
												OFFSET 2.952896 0.000000 0.000000
												CHANNELS 3 Xrotation Yrotation Zrotation
												End Site
												{
													OFFSET 2.952904 0.000000 0.000165
												}
											}
										}
									}
								}
								JOINT mixamorig:LeftHandRing1
								{
									OFFSET 9.104500 -0.042999 -1.865101
									CHANNELS 6 Xposition Yposition Zposition Xrotation Yrotation Zrotation
									JOINT mixamorig:LeftHandRing2
									{
										OFFSET 3.149994 0.000000 0.000000
										CHANNELS 3 Xrotation Yrotation Zrotation
										JOINT mixamorig:LeftHandRing3
										{
											OFFSET 2.950005 0.000000 0.000000
											CHANNELS 3 Xrotation Yrotation Zrotation
											JOINT mixamorig:LeftHandRing4
											{
												OFFSET 2.644302 0.000000 0.000000
												CHANNELS 3 Xrotation Yrotation Zrotation
												End Site
												{
													OFFSET 2.644302 0.000000 0.000083
												}
											}
										}
									}
								}
								JOINT mixamorig:LeftHandPinky1
								{
									OFFSET 8.077805 -0.486893 -3.806302
									CHANNELS 6 Xposition Yposition Zposition Xrotation Yrotation Zrotation
									JOINT mixamorig:LeftHandPinky2
									{
										OFFSET 3.600006 0.000000 0.000000
										CHANNELS 3 Xrotation Yrotation Zrotation
										JOINT mixamorig:LeftHandPinky3
										{
											OFFSET 2.099998 0.000000 0.000000
											CHANNELS 3 Xrotation Yrotation Zrotation
											JOINT mixamorig:LeftHandPinky4
											{
												OFFSET 2.125496 0.000000 0.000000
												CHANNELS 3 Xrotation Yrotation Zrotation
												End Site
												{
													OFFSET 2.125504 0.000000 -0.001254
												}
											}
										}
									}
								}
							}
						}
					}
				}
			}
		}
	}
	JOINT mixamorig:RightUpLeg
	{
		OFFSET -8.207800 -6.751701 -1.599544
		CHANNELS 6 Xposition Yposition Zposition Xrotation Yrotation Zrotation
		JOINT mixamorig:RightLeg
		{
			OFFSET 0.000004 -44.370152 0.345934
			CHANNELS 3 Xrotation Yrotation Zrotation
			JOINT mixamorig:RightFoot
			{
				OFFSET 0.000004 -44.423664 -3.043535
				CHANNELS 3 Xrotation Yrotation Zrotation
				JOINT mixamorig:RightToeBase
				{
					OFFSET 0.000001 -8.728691 10.710592
					CHANNELS 3 Xrotation Yrotation Zrotation
					JOINT mixamorig:RightToe_End
					{
						OFFSET 0.000000 -0.000665 9.278101
						CHANNELS 3 Xrotation Yrotation Zrotation
						End Site
						{
							OFFSET 0.000000 -0.000665 9.278103
						}
					}
				}
			}
		}
	}
	JOINT mixamorig:LeftUpLeg
	{
		OFFSET 8.207800 -6.751701 -1.599544
		CHANNELS 6 Xposition Yposition Zposition Xrotation Yrotation Zrotation
		JOINT mixamorig:LeftLeg
		{
			OFFSET 0.000004 -44.370037 0.346940
			CHANNELS 3 Xrotation Yrotation Zrotation
			JOINT mixamorig:LeftFoot
			{
				OFFSET 0.000004 -44.423611 -3.044388
				CHANNELS 3 Xrotation Yrotation Zrotation
				JOINT mixamorig:LeftToeBase
				{
					OFFSET 0.000001 -8.728690 10.710592
					CHANNELS 3 Xrotation Yrotation Zrotation
					JOINT mixamorig:LeftToe_End
					{
						OFFSET 0.000000 -0.000680 9.278101
						CHANNELS 3 Xrotation Yrotation Zrotation
						End Site
						{
							OFFSET 0.000000 -0.000680 9.278101
						}
					}
				}
			}
		}
	}
}
MOTION
Frames: 4
Frame Time: 0.033333
-7.259924 91.130348 -9.860693 -4.037005 -33.947570 0.410701 -0.000000 10.181545 0.131525 9.149694 6.885946 0.374602 1.497531 0.927978 -0.801251 1.507543 0.911691 -0.798516 -0.000001 16.740372 -2.049019 6.265830 1.839466 -4.379317 -0.000002 9.617859 1.684971 14.202151 3.098156 -5.053012 -0.000002 22.037354 7.501080 -0.000003 -0.000000 -0.000000 -4.570001 11.014867 -2.160837 2.709317 13.303194 -6.264604 -37.757552 34.760998 76.153351 0.000176 111.023680 -0.000134 -5.823830 15.155691 -17.754833 -2.464808 -1.574000 2.681914 6.801483 -10.900330 7.985594 19.141655 -27.885342 3.998756 -2.646261 -1.527797 1.527803 29.984688 -44.512336 -15.655552 -1.994599 -1.151573 1.151576 -0.000002 -0.000006 0.000003 -9.108318 -0.517884 2.259801 5.720043 -6.839339 79.794341 8.318718 -6.812373 101.403044 3.440656 -6.001659 59.619676 -0.000002 -0.000001 -0.000001 -9.532516 0.000007 0.000000 5.760455 -6.846641 80.562033 8.164413 -6.841465 100.105062 2.110248 -5.185143 46.876664 0.000003 -0.000001 0.000001 -9.103594 -0.043122 -1.865101 5.204732 -6.727309 75.997630 7.669970 -6.910795 95.976992 3.977503 -5.240005 60.393544 -0.000001 -0.000001 0.000001 -8.076694 -0.486738 -3.806299 4.789310 -6.605878 71.856151 6.550500 -6.936863 86.710454 3.870582 -6.232443 63.652643 -0.000001 -0.000001 0.000003 4.570397 11.014672 -2.160812 1.972954 2.210984 -9.518880 -25.573565 -20.651511 -64.992446 -0.000068 -116.882828 -0.000053 25.219166 2.262728 6.244778 2.466089 -1.576210 2.681697 7.848637 10.285270 -7.819794 19.113519 25.088883 -4.277953 2.647875 -1.528739 1.528751 35.938799 53.409726 -17.151542 1.998921 -1.154094 1.154070 0.000002 -0.000000 -0.000002 9.109295 -0.518004 2.259894 4.948218 6.605538 -73.648666 8.165030 6.761114 -100.777816 2.283709 5.125600 -48.009533 -0.000000 -0.000001 -0.000001 9.533426 0.000009 -0.000003 4.594195 6.492225 -71.068473 8.420097 6.707906 -102.952746 1.771057 4.614652 -41.976625 0.000001 -0.000000 0.000001 9.104518 -0.043000 -1.865102 5.064704 6.638451 -74.926479 7.796345 6.820552 -97.660715 4.190767 6.335908 -66.934918 -0.000001 0.000001 -0.000000 8.077826 -0.486899 -3.806310 5.967023 6.846717 -77.445616 5.595010 2.674154 -79.236130 4.083242 6.289324 -65.957067 0.000001 -0.000001 0.000000 -8.207801 -6.751709 -1.599544 -7.636066 -16.267841 -23.787947 43.813526 -8.424022 -0.402085 -27.824712 -7.607621 22.871218 -3.611951 -0.000000 -0.000006 0.000000 -0.000001 -0.000000 8.207800 -6.751703 -1.599544 -33.724523 6.189519 16.593458 47.877587 -8.937975 8.678116 -7.371776 -14.103923 -17.455390 -9.580670 0.000018 0.000001 0.000000 -0.000001 0.000000 
-7.363616 91.141869 -9.633918 -4.865482 -34.318630 0.023903 -0.000000 10.181552 0.131520 9.152086 6.821129 0.923419 1.727803 0.918268 -0.873309 1.739206 0.898847 -0.867938 -0.000001 16.740377 -2.049021 6.466493 1.920068 -4.466504 -0.000000 9.617861 1.684973 14.567274 3.611455 -5.781881 -0.000001 22.037384 7.501067 0.000002 0.000000 -0.000000 -4.570000 11.014881 -2.160841 3.025410 13.577514 -5.934572 -35.567776 35.011044 76.209277 0.000220 109.601853 -0.000176 -5.780942 15.020530 -17.011133 -2.464785 -1.574004 2.681911 6.801484 -10.900330 7.985594 19.141648 -27.885338 3.998757 -2.646257 -1.527793 1.527834 29.984694 -44.512329 -15.655552 -1.994606 -1.151586 1.151569 -0.000002 -0.000002 0.000003 -9.108304 -0.517886 2.259810 5.720044 -6.839334 79.794341 8.318720 -6.812373 101.403044 3.440655 -6.001656 59.619676 0.000002 0.000000 0.000002 -9.532488 -0.000003 0.000003 5.760454 -6.846641 80.562033 8.164410 -6.841463 100.105062 2.110246 -5.185146 46.876667 -0.000003 0.000000 0.000001 -9.103593 -0.043114 -1.865105 5.204733 -6.727303 75.997630 7.669974 -6.910795 95.976992 3.977503 -5.240005 60.393537 0.000001 0.000001 0.000000 -8.076683 -0.486734 -3.806295 4.789310 -6.605876 71.856145 6.550501 -6.936863 86.710454 3.870582 -6.232445 63.652643 -0.000001 -0.000004 -0.000000 4.570401 11.014693 -2.160818 1.849074 3.035432 -9.459992 -24.585215 -20.207736 -65.130396 -0.000005 -114.712467 -0.000003 25.952033 2.704092 4.731184 2.466110 -1.576219 2.681700 7.848641 10.285271 -7.819795 19.113516 25.088883 -4.277958 2.647879 -1.528743 1.528755 35.938806 53.409733 -17.151551 1.998910 -1.154093 1.154070 0.000001 0.000003 -0.000000 9.109310 -0.518008 2.259903 4.948220 6.605543 -73.648666 8.165035 6.761113 -100.777816 2.283705 5.125597 -48.009540 -0.000000 -0.000001 0.000000 9.533405 0.000005 -0.000003 4.594194 6.492228 -71.068473 8.420098 6.707907 -102.952746 1.771060 4.614652 -41.976625 -0.000000 0.000000 0.000001 9.104514 -0.043000 -1.865100 5.064701 6.638452 -74.926485 7.796347 6.820553 -97.660715 4.190766 6.335912 -66.934918 0.000002 0.000001 -0.000000 8.077793 -0.486894 -3.806302 5.967024 6.846717 -77.445616 5.595011 2.674153 -79.236130 4.083240 6.289324 -65.957067 -0.000001 -0.000002 0.000001 -8.207802 -6.751726 -1.599545 -7.104092 -16.826775 -24.378301 43.611646 -8.247536 -0.409164 -27.878266 -6.795035 22.784410 -4.507208 -0.000055 0.000003 0.000000 0.000002 0.000000 8.207798 -6.751717 -1.599545 -33.275620 6.554132 16.953522 48.281692 -8.962775 8.549528 -6.676102 -14.918235 -17.097200 -10.168227 -0.000007 0.000003 0.000000 -0.000000 0.000000 
-7.344769 91.800217 -9.124936 -5.276208 -34.892332 -0.322490 0.000000 10.181534 0.131522 8.741023 6.689983 1.276999 1.977394 0.898937 -0.809711 1.988110 0.880017 -0.801050 0.000001 16.740379 -2.049025 6.918210 1.986854 -4.560964 0.000000 9.617855 1.684969 15.109357 4.159712 -6.551991 0.000002 22.037354 7.501085 -0.000004 -0.000001 0.000001 -4.570000 11.014900 -2.160841 3.647168 14.267250 -5.337257 -35.124685 34.703208 75.651496 0.000155 108.801956 -0.000114 -6.284016 14.401567 -16.713946 -2.464799 -1.573986 2.681899 6.801482 -10.900338 7.985600 19.141656 -27.885337 3.998759 -2.646254 -1.527793 1.527815 29.984698 -44.512326 -15.655557 -1.994586 -1.151597 1.151579 0.000001 0.000000 0.000001 -9.108318 -0.517884 2.259791 5.720044 -6.839340 79.794341 8.318722 -6.812374 101.403044 3.440656 -6.001656 59.619676 -0.000001 -0.000001 -0.000001 -9.532531 -0.000008 -0.000010 5.760453 -6.846642 80.562033 8.164416 -6.841464 100.105062 2.110246 -5.185142 46.876664 0.000001 0.000000 0.000002 -9.103594 -0.043100 -1.865112 5.204732 -6.727312 75.997630 7.669970 -6.910794 95.976992 3.977503 -5.240002 60.393544 -0.000001 -0.000001 0.000001 -8.076726 -0.486735 -3.806301 4.789308 -6.605882 71.856145 6.550505 -6.936865 86.710447 3.870580 -6.232444 63.652643 -0.000002 0.000000 -0.000001 4.570401 11.014701 -2.160815 1.744840 3.451655 -9.336629 -24.555579 -19.611785 -64.291915 -0.000011 -114.336096 -0.000002 26.095023 3.429902 3.377322 2.466106 -1.576214 2.681703 7.848642 10.285275 -7.819786 19.113519 25.088880 -4.277950 2.647879 -1.528743 1.528744 35.938803 53.409737 -17.151537 1.998909 -1.154092 1.154080 -0.000002 0.000000 0.000003 9.109318 -0.518004 2.259910 4.948222 6.605543 -73.648673 8.165034 6.761116 -100.777816 2.283707 5.125597 -48.009536 -0.000002 0.000000 -0.000000 9.533411 0.000009 0.000004 4.594196 6.492229 -71.068473 8.420096 6.707906 -102.952753 1.771061 4.614651 -41.976621 0.000001 -0.000003 0.000001 9.104499 -0.042992 -1.865097 5.064706 6.638452 -74.926485 7.796347 6.820554 -97.660715 4.190768 6.335909 -66.934918 -0.000000 -0.000001 -0.000001 8.077806 -0.486894 -3.806293 5.967027 6.846714 -77.445616 5.595009 2.674155 -79.236137 4.083242 6.289325 -65.957067 0.000002 0.000001 -0.000001 -8.207798 -6.751722 -1.599545 -6.291546 -17.049706 -24.013987 42.251537 -8.795177 -0.752209 -27.207241 -6.010789 20.257188 -6.434514 -0.000018 -0.000000 -0.000000 0.000002 0.000000 8.207798 -6.751705 -1.599542 -32.971902 6.953804 17.572325 48.045883 -9.153577 8.156637 -3.830952 -15.992825 -18.001232 -11.788112 -0.076703 2.394209 0.000000 -0.000002 0.000000 
-7.111057 92.972519 -8.354877 -5.121513 -35.659943 -0.379718 -0.000000 10.181532 0.131524 8.006631 6.601378 1.360625 2.143061 0.886026 -0.648111 2.151650 0.870483 -0.636715 0.000000 16.740360 -2.049020 7.536543 1.996621 -4.668479 -0.000000 9.617846 1.684971 15.851653 4.425943 -7.171886 -0.000000 22.037354 7.501089 0.000000 0.000000 -0.000000 -4.569999 11.014862 -2.160837 4.233188 14.962530 -4.799308 -36.186629 34.044798 74.836361 0.000222 108.965949 -0.000166 -7.360658 13.669008 -17.030134 -2.464790 -1.573985 2.681908 6.801478 -10.900335 7.985598 19.141650 -27.885340 3.998756 -2.646269 -1.527797 1.527815 29.984691 -44.512329 -15.655564 -1.994599 -1.151585 1.151579 0.000003 -0.000001 0.000003 -9.108319 -0.517888 2.259803 5.720042 -6.839339 79.794341 8.318721 -6.812374 101.403044 3.440656 -6.001655 59.619676 0.000004 0.000001 0.000001 -9.532503 0.000011 -0.000002 5.760454 -6.846642 80.562033 8.164418 -6.841464 100.105062 2.110248 -5.185143 46.876664 0.000004 0.000000 -0.000002 -9.103608 -0.043103 -1.865099 5.204732 -6.727307 75.997630 7.669977 -6.910797 95.976992 3.977505 -5.240004 60.393544 -0.000001 0.000002 0.000003 -8.076712 -0.486727 -3.806296 4.789309 -6.605881 71.856151 6.550502 -6.936864 86.710454 3.870581 -6.232442 63.652650 0.000000 -0.000001 0.000000 4.570400 11.014674 -2.160814 1.700532 3.383151 -9.220860 -25.375672 -18.833413 -63.082739 0.000006 -115.868586 0.000010 25.368958 4.035134 3.011688 2.466096 -1.576200 2.681692 7.848642 10.285272 -7.819795 19.113516 25.088881 -4.277947 2.647896 -1.528731 1.528762 35.938806 53.409733 -17.151553 1.998924 -1.154096 1.154083 0.000000 0.000000 0.000003 9.109293 -0.518011 2.259894 4.948221 6.605539 -73.648666 8.165030 6.761116 -100.777816 2.283703 5.125593 -48.009533 -0.000003 0.000002 -0.000000 9.533411 0.000013 -0.000001 4.594198 6.492229 -71.068480 8.420095 6.707907 -102.952746 1.771062 4.614654 -41.976621 0.000001 -0.000002 0.000001 9.104501 -0.043000 -1.865105 5.064704 6.638453 -74.926485 7.796344 6.820550 -97.660715 4.190768 6.335908 -66.934918 -0.000001 0.000002 0.000002 8.077789 -0.486894 -3.806304 5.967026 6.846717 -77.445623 5.595011 2.674150 -79.236130 4.083242 6.289323 -65.957067 -0.000000 -0.000000 0.000001 -8.207801 -6.751708 -1.599543 -5.495488 -16.985796 -23.395915 39.610022 -9.647383 -1.335259 -24.201450 -5.057543 18.656660 -8.843297 0.000013 0.000005 -0.000000 -0.000001 -0.000000 8.207798 -6.751713 -1.599541 -32.649172 7.266222 17.912245 47.057831 -9.430698 7.597953 0.356594 -16.564121 -19.376405 -13.276253 -0.287226 4.410491 0.000000 -0.000001 0.000000 
